<?xml version="1.0" standalone="no"?>
<!DOCTYPE svg PUBLIC "-//W3C//DTD SVG 20010904//EN"
 "http://www.w3.org/TR/2001/REC-SVG-20010904/DTD/svg10.dtd">
<svg version="1.0" xmlns="http://www.w3.org/2000/svg"
 width="300.000000pt" height="300.000000pt" viewBox="0 0 300.000000 300.000000"
 preserveAspectRatio="xMidYMid meet">

<g transform="translate(0.000000,300.000000) scale(0.100000,-0.100000)"
fill="#000000" stroke="none">
<path d="M500 1761 c8 -6 10 -11 5 -11 -6 0 -20 -7 -30 -15 -72 -55 -161 -105
-188 -107 -18 0 -3 -4 33 -8 36 -4 103 -3 150 1 47 5 91 9 98 9 8 0 12 19 12
59 0 56 -1 59 -27 65 -16 4 -37 9 -48 12 -16 4 -17 3 -5 -5z"/>
<path d="M720 1505 c0 -138 1 -145 20 -145 18 0 20 7 20 55 0 52 1 55 25 55
41 0 65 33 65 90 0 66 -23 90 -85 90 l-45 0 0 -145z m86 81 c10 -42 1 -71 -23
-74 -21 -3 -23 0 -23 47 0 44 3 51 20 51 12 0 22 -9 26 -24z"/>
<path d="M886 1628 c-23 -32 -23 -214 0 -246 18 -26 74 -30 98 -6 23 23 23
235 0 258 -24 24 -80 20 -98 -6z m74 -124 c0 -104 0 -105 -22 -102 -22 3 -23
8 -26 92 -3 103 0 116 28 116 19 0 20 -6 20 -106z"/>
<path d="M1049 1633 c-10 -11 -14 -48 -14 -130 0 -102 2 -116 19 -129 25 -17
67 -18 90 -1 9 7 20 32 23 55 5 38 4 42 -16 42 -14 0 -21 -6 -21 -19 0 -33
-11 -51 -31 -51 -17 0 -19 9 -19 106 0 104 0 105 23 102 16 -2 23 -11 25 -31
3 -20 8 -27 20 -25 20 4 21 60 2 83 -17 20 -84 19 -101 -2z"/>
<path d="M1200 1505 l0 -145 44 0 c64 0 91 25 90 84 0 25 -7 52 -14 61 -10 12
-10 19 -2 27 7 7 12 29 12 49 0 47 -27 69 -87 69 l-43 0 0 -145z m88 77 c4
-26 -13 -52 -34 -52 -10 0 -14 13 -14 41 0 36 2 40 23 37 14 -2 23 -11 25 -26z
m-3 -137 c0 -34 -3 -40 -22 -43 -21 -3 -23 1 -23 43 0 42 2 46 23 43 19 -3 22
-9 22 -43z"/>
<path d="M1376 1628 c-12 -17 -16 -48 -16 -125 0 -90 3 -106 20 -123 23 -23
68 -26 96 -6 17 13 19 27 19 131 0 104 -2 118 -19 131 -31 22 -82 18 -100 -8z
m74 -123 c0 -96 -2 -105 -19 -105 -25 0 -31 19 -31 105 0 86 6 105 31 105 17
0 19 -9 19 -105z"/>
<path d="M1556 1604 c-3 -26 -6 -77 -6 -115 0 -47 -5 -72 -15 -83 -8 -8 -15
-31 -15 -50 0 -29 4 -36 20 -36 13 0 20 7 20 20 0 17 7 20 50 20 43 0 50 -3
50 -20 0 -13 7 -20 20 -20 17 0 20 7 20 40 0 22 -4 40 -10 40 -6 0 -10 48 -10
125 l0 125 -59 0 -58 0 -7 -46z m84 -99 l0 -105 -28 0 -27 0 7 83 c3 45 7 92
7 105 1 15 7 22 21 22 19 0 20 -7 20 -105z"/>
<path d="M1730 1505 c0 -138 1 -145 20 -145 18 0 20 7 20 55 0 54 1 55 28 55
44 0 62 27 62 93 0 67 -20 87 -87 87 l-43 0 0 -145z m85 55 c0 -39 -3 -45 -22
-48 -21 -3 -23 0 -23 48 0 48 2 51 23 48 19 -3 22 -9 22 -48z"/>
<path d="M1890 1505 l0 -145 60 0 c53 0 60 2 60 20 0 17 -7 20 -40 20 l-40 0
0 45 c0 43 1 45 30 45 23 0 30 4 30 20 0 16 -7 20 -30 20 -28 0 -30 2 -30 40
l0 40 40 0 c33 0 40 3 40 20 0 18 -7 20 -60 20 l-60 0 0 -145z"/>
<path d="M2056 1634 c-13 -12 -16 -39 -16 -129 0 -128 8 -145 65 -145 41 0 65
29 65 77 0 26 -4 33 -19 33 -15 0 -21 -8 -23 -32 -2 -25 -8 -33 -23 -33 -19 0
-20 7 -20 100 0 93 1 100 20 100 14 0 21 -8 23 -27 2 -20 9 -28 23 -28 24 0
26 45 3 78 -18 26 -74 30 -98 6z"/>
<path d="M2190 1643 c0 -4 14 -56 31 -115 30 -108 31 -128 3 -128 -8 0 -14 -9
-14 -20 0 -25 30 -27 58 -2 15 12 29 52 50 145 l29 127 -23 0 c-19 0 -24 -8
-33 -50 -6 -28 -11 -59 -11 -70 0 -47 -18 -23 -34 45 -14 61 -21 75 -37 75
-10 0 -19 -3 -19 -7z"/>
<path d="M2370 1505 c0 -138 1 -145 20 -145 18 0 20 7 20 55 0 52 1 55 25 55
41 0 65 33 65 90 0 66 -23 90 -85 90 l-45 0 0 -145z m85 55 c0 -39 -3 -45 -22
-48 -21 -3 -23 0 -23 48 0 48 2 51 23 48 19 -3 22 -9 22 -48z"/>
<path d="M2536 1628 c-12 -17 -16 -48 -16 -123 0 -119 12 -145 65 -145 45 0
65 22 65 71 0 33 -3 40 -17 37 -12 -2 -19 -14 -21 -36 -2 -24 -8 -32 -22 -32
-26 0 -32 27 -28 125 3 73 5 80 25 83 17 3 22 -2 25 -25 2 -17 10 -29 21 -31
13 -3 17 4 17 32 0 44 -22 66 -65 66 -24 0 -39 -7 -49 -22z"/>
<path d="M2690 1515 c0 -74 -1 -138 -2 -142 -4 -10 58 -16 87 -9 30 8 49 56
42 108 -6 46 -27 68 -64 68 -21 0 -23 4 -23 55 0 48 -2 55 -20 55 -19 0 -20
-7 -20 -135z m78 -62 c-2 -36 -7 -49 -20 -51 -15 -3 -18 4 -18 47 0 45 3 51
21 51 18 0 20 -5 17 -47z"/>
<path d="M2842 1508 c3 -140 4 -143 26 -146 22 -3 22 -3 22 142 l0 146 -25 0
-26 0 3 -142z"/>
<path d="M218 1633 c7 -3 16 -2 19 1 4 3 -2 6 -13 5 -11 0 -14 -3 -6 -6z"/>
<path d="M475 1568 c-77 -15 -129 -18 -225 -15 -69 2 -114 0 -100 -4 22 -6 20
-7 -15 -9 -36 -2 -34 -3 20 -11 33 -5 85 -6 115 -3 98 9 310 47 310 56 0 4 -1
8 -2 7 -2 -1 -48 -10 -103 -21z"/>
<path d="M340 1490 c-69 -10 -151 -21 -184 -25 -37 -4 -55 -10 -49 -16 7 -7
67 -1 169 16 95 16 185 25 223 23 45 -2 65 1 68 10 6 17 -72 14 -227 -8z"/>
<path d="M217 1417 l-89 -12 29 -42 c42 -63 152 -183 167 -183 17 0 132 121
175 183 20 30 27 48 20 52 -20 13 -213 14 -302 2z"/>
</g>
</svg>
