<?xml version="1.0" standalone="no"?>
<!DOCTYPE svg PUBLIC "-//W3C//DTD SVG 20010904//EN"
 "http://www.w3.org/TR/2001/REC-SVG-20010904/DTD/svg10.dtd">
<svg version="1.0" xmlns="http://www.w3.org/2000/svg"
 width="253.000000pt" height="260.000000pt" viewBox="0 0 253.000000 260.000000"
 preserveAspectRatio="xMidYMid meet">

<g transform="translate(0.000000,260.000000) scale(0.100000,-0.100000)"
fill="#000000" stroke="none">
<path d="M1253 2560 c0 -9 6 -17 12 -17 6 0 12 8 12 17 1 9 -5 17 -12 17 -7 0
-13 -8 -12 -17z"/>
<path d="M1230 2501 c0 -7 -5 -9 -10 -6 -6 3 -13 -1 -16 -9 -3 -9 -13 -16 -21
-16 -8 0 -11 5 -8 10 7 11 -15 13 -39 4 -13 -5 -14 -9 -5 -20 6 -8 8 -14 4
-14 -4 0 -2 -7 5 -15 6 -8 8 -19 4 -26 -5 -8 1 -10 20 -7 26 5 37 -7 14 -14
-7 -3 -3 -7 9 -10 14 -4 24 -1 27 9 4 9 2 11 -5 7 -7 -4 -10 -1 -7 7 3 8 -1
20 -9 27 -18 19 -16 29 7 35 20 5 39 -8 21 -15 -5 -1 -3 -9 4 -15 11 -10 13
-8 12 10 -1 12 -8 27 -17 34 -13 10 -13 11 4 9 10 -1 23 -11 28 -21 10 -17 12
-17 30 6 l19 24 -6 -38 c-4 -32 -3 -36 9 -25 8 7 10 15 5 16 -18 7 1 20 21 15
21 -6 28 -23 9 -23 -5 0 -7 -4 -4 -10 3 -5 2 -10 -4 -10 -6 0 -7 -7 -4 -17 4
-11 3 -14 -5 -9 -7 4 -10 2 -7 -6 6 -14 45 -19 45 -6 0 4 -4 8 -10 8 -5 0 -10
4 -10 9 0 4 11 6 23 4 16 -3 24 0 25 11 1 9 3 23 4 31 1 8 5 15 10 15 4 0 8 5
8 11 0 8 -4 8 -14 0 -9 -7 -17 -8 -20 -2 -3 5 0 12 6 14 8 4 7 6 -4 6 -9 1
-18 -7 -20 -16 -3 -16 -5 -15 -23 3 -21 21 -28 22 -59 9 -14 -6 -23 -3 -32 10
-8 11 -14 13 -14 6z m-74 -30 c-4 -5 0 -11 6 -14 7 -2 9 -8 5 -13 -4 -5 -12
-2 -17 6 -13 20 -12 30 1 30 5 0 8 -4 5 -9z m224 -21 c0 -5 -4 -10 -10 -10 -5
0 -10 5 -10 10 0 6 5 10 10 10 6 0 10 -4 10 -10z m-200 -30 c0 -5 -4 -10 -10
-10 -5 0 -10 5 -10 10 0 6 5 10 10 10 6 0 10 -4 10 -10z m190 0 c0 -5 -4 -10
-10 -10 -5 0 -10 5 -10 10 0 6 5 10 10 10 6 0 10 -4 10 -10z"/>
<path d="M1070 2445 c-6 -8 -9 -19 -5 -25 3 -5 1 -10 -6 -10 -7 0 -10 -2 -7
-5 3 -3 13 -2 22 1 14 5 15 9 4 16 -10 7 -9 11 6 23 11 8 15 15 9 15 -6 0 -16
-7 -23 -15z"/>
<path d="M1440 2456 c0 -2 8 -10 18 -17 15 -13 16 -12 3 4 -13 16 -21 21 -21
13z"/>
<path d="M1100 2429 c0 -5 5 -7 10 -4 6 3 10 8 10 11 0 2 -4 4 -10 4 -5 0 -10
-5 -10 -11z"/>
<path d="M1253 2414 c-6 -13 -8 -26 -3 -29 4 -3 11 7 14 21 9 35 4 39 -11 8z"/>
<path d="M1415 2430 c3 -5 11 -10 16 -10 6 0 7 5 4 10 -3 6 -11 10 -16 10 -6
0 -7 -4 -4 -10z"/>
<path d="M1110 2400 c0 -5 5 -10 11 -10 5 0 7 5 4 10 -3 6 -8 10 -11 10 -2 0
-4 -4 -4 -10z"/>
<path d="M1405 2400 c-3 -5 -1 -10 4 -10 6 0 11 5 11 10 0 6 -2 10 -4 10 -3 0
-8 -4 -11 -10z"/>
<path d="M1086 2387 c3 -10 9 -15 12 -12 3 3 0 11 -7 18 -10 9 -11 8 -5 -6z"/>
<path d="M1270 2389 c0 -5 5 -7 10 -4 6 3 10 8 10 11 0 2 -4 4 -10 4 -5 0 -10
-5 -10 -11z"/>
<path d="M1130 2365 c-7 -8 -9 -15 -6 -15 4 0 14 7 22 15 9 8 11 15 6 15 -5 0
-15 -7 -22 -15z"/>
<path d="M1238 2365 c4 -5 6 -19 4 -30 -2 -17 -1 -17 8 3 5 12 12 22 15 22 4
0 4 -3 2 -7 -3 -5 1 -13 8 -20 10 -9 14 -6 17 15 3 25 1 27 -28 27 -19 0 -30
-4 -26 -10z"/>
<path d="M1384 2365 c8 -8 18 -15 22 -15 3 0 1 7 -6 15 -7 8 -17 15 -22 15 -5
0 -3 -7 6 -15z"/>
<path d="M1169 2359 c-11 -7 -9 -9 10 -9 17 0 22 -4 17 -16 -3 -8 -2 -12 4 -9
6 3 10 1 10 -4 0 -6 4 -11 9 -11 15 0 0 40 -18 50 -10 5 -23 5 -32 -1z"/>
<path d="M1327 2357 c-18 -15 -30 -47 -17 -47 6 0 10 5 10 11 0 5 4 7 10 4 5
-3 7 0 4 9 -4 10 2 16 18 18 18 3 20 4 6 10 -9 4 -23 1 -31 -5z"/>
<path d="M1430 2361 c0 -17 38 -33 46 -19 4 6 3 8 -4 4 -6 -3 -18 1 -26 10 -9
8 -16 11 -16 5z"/>
<path d="M1468 2363 c7 -3 16 -2 19 1 4 3 -2 6 -13 5 -11 0 -14 -3 -6 -6z"/>
<path d="M1085 2321 c-6 -11 9 -23 19 -14 9 9 7 23 -3 23 -6 0 -12 -4 -16 -9z"/>
<path d="M1422 2321 c2 -7 7 -12 11 -12 12 1 9 15 -3 20 -7 2 -11 -2 -8 -8z"/>
<path d="M1130 2310 c-9 -6 -10 -10 -3 -10 6 0 15 5 18 10 8 12 4 12 -15 0z"/>
<path d="M1387 2309 c7 -7 15 -10 18 -7 3 3 -2 9 -12 12 -14 6 -15 5 -6 -5z"/>
<path d="M1100 2282 c0 -12 19 -26 26 -19 2 2 -2 10 -11 17 -9 8 -15 8 -15 2z"/>
<path d="M1203 2284 c2 -3 21 -6 42 -7 21 -1 40 -7 42 -13 3 -10 -56 -10 -82
0 -7 2 -12 -3 -12 -11 0 -10 7 -13 23 -9 13 4 24 1 27 -7 4 -9 6 -9 6 1 1 6 8
12 16 12 8 0 15 -6 15 -12 0 -9 3 -9 8 -3 4 6 17 10 30 9 30 -2 28 4 -5 18
l-28 11 25 7 c16 4 1 7 -43 7 -37 1 -66 -1 -64 -3z"/>
<path d="M639 2263 c-13 -16 -12 -17 4 -4 9 7 17 15 17 17 0 8 -8 3 -21 -13z"/>
<path d="M707 2259 c12 -12 24 -21 27 -18 2 2 -8 13 -22 23 l-27 19 22 -24z"/>
<path d="M1405 2270 c-3 -5 -2 -10 4 -10 5 0 13 5 16 10 3 6 2 10 -4 10 -5 0
-13 -4 -16 -10z"/>
<path d="M1811 2260 c-13 -11 -19 -20 -14 -20 6 0 18 9 28 20 23 25 17 25 -14
0z"/>
<path d="M1870 2276 c0 -2 8 -10 18 -17 15 -13 16 -12 3 4 -13 16 -21 21 -21
13z"/>
<path d="M1350 2252 c6 -13 14 -21 18 -18 3 4 -2 14 -12 24 -18 16 -18 16 -6
-6z"/>
<path d="M909 2258 c-7 -30 -3 -48 11 -48 20 0 22 41 3 48 -7 2 -13 2 -14 0z"/>
<path d="M1599 2258 c-9 -23 -4 -48 11 -48 19 0 21 41 2 48 -7 2 -13 2 -13 0z"/>
<path d="M1415 2240 c-3 -5 -11 -8 -18 -6 -7 1 -9 1 -5 -1 4 -2 5 -10 2 -18
-3 -7 -1 -16 5 -20 7 -4 8 0 4 11 -5 13 -3 15 8 9 8 -4 11 -5 7 0 -4 4 -3 14
3 22 6 7 9 13 6 13 -3 0 -8 -4 -12 -10z"/>
<path d="M598 2222 c-33 -20 -35 -28 -8 -28 10 0 17 2 15 5 -3 2 2 13 12 23
19 21 17 21 -19 0z"/>
<path d="M1113 2223 c0 -6 5 -9 10 -6 6 4 8 -1 4 -11 -4 -9 -3 -15 2 -12 5 3
11 14 14 25 3 14 0 19 -12 18 -10 0 -18 -7 -18 -14z"/>
<path d="M1913 2224 c9 -11 15 -23 12 -25 -2 -3 5 -5 15 -5 11 0 20 4 20 8 0
4 -5 8 -12 8 -6 0 -21 8 -32 18 -21 17 -21 17 -3 -4z"/>
<path d="M850 2186 c0 -4 5 -17 11 -29 9 -20 9 -20 -9 2 -16 20 -22 22 -38 12
-17 -11 -17 -12 -1 -7 11 4 20 -1 24 -12 4 -9 14 -23 22 -30 9 -7 12 -12 6
-11 -5 1 -17 1 -25 -1 -12 -1 -11 -3 3 -8 17 -7 16 -9 -3 -29 -21 -23 -27 -38
-10 -28 6 3 10 1 10 -4 0 -6 -8 -11 -17 -11 -9 0 -14 -3 -10 -6 3 -3 23 0 44
7 21 7 51 12 66 11 17 -2 26 2 22 8 -11 17 7 11 20 -7 10 -14 16 -15 27 -5 8
6 18 9 21 5 17 -16 5 10 -13 29 -25 27 -26 39 -2 32 13 -5 14 -4 3 4 -8 6 -21
8 -30 5 -10 -3 -12 -1 -6 4 6 4 11 15 11 23 1 8 5 24 10 35 7 17 6 18 -8 7
-14 -11 -33 -57 -30 -73 1 -3 -12 -6 -28 -5 -15 1 -28 3 -28 6 3 15 -16 61
-28 71 -8 6 -14 8 -14 5z m85 -106 c3 -5 -1 -10 -9 -10 -9 0 -16 5 -16 10 0 6
4 10 9 10 6 0 13 -4 16 -10z m-45 -4 c0 -2 -9 -6 -20 -9 -11 -3 -20 -1 -20 4
0 5 9 9 20 9 11 0 20 -2 20 -4z m94 -5 c4 -5 -3 -7 -14 -4 -23 6 -26 13 -6 13
8 0 17 -4 20 -9z"/>
<path d="M880 2186 c0 -12 29 -69 30 -57 0 11 3 11 15 1 13 -10 15 -9 15 8 0
12 5 24 10 27 12 8 13 25 1 25 -5 0 -12 -10 -16 -22 -6 -21 -8 -21 -12 -4 -4
15 -7 16 -14 5 -7 -11 -9 -11 -9 4 0 9 -4 17 -10 17 -5 0 -10 -2 -10 -4z"/>
<path d="M1540 2186 c0 -4 5 -17 11 -29 9 -20 9 -20 -9 2 -16 20 -22 22 -40
12 -12 -7 -22 -19 -22 -27 0 -8 5 -12 10 -9 6 4 8 10 5 15 -3 4 2 11 11 14 10
4 18 0 21 -13 3 -10 14 -23 26 -29 21 -10 20 -11 -8 -12 -23 -1 -26 -3 -12 -8
17 -7 16 -9 -4 -30 -11 -13 -18 -26 -15 -29 3 -4 6 -3 6 2 0 4 7 1 16 -6 14
-11 18 -11 29 4 13 18 31 24 20 7 -4 -6 5 -10 22 -8 15 1 45 -4 66 -11 21 -7
41 -10 44 -7 4 3 -1 6 -10 6 -9 0 -17 5 -17 11 0 5 5 7 10 4 17 -10 11 5 -10
28 -19 20 -20 22 -3 29 14 5 15 7 3 8 -8 2 -22 2 -30 1 -8 0 -5 4 7 10 12 6
23 20 26 30 4 13 11 17 24 13 17 -5 17 -5 -1 7 -16 10 -22 8 -38 -12 l-19 -24
11 23 c6 13 9 26 7 29 -3 3 -15 -13 -26 -35 -11 -22 -18 -41 -16 -43 2 -2 -10
-4 -25 -5 -16 -1 -29 2 -28 5 3 15 -15 61 -28 72 -8 6 -14 8 -14 5z m85 -106
c3 -5 -1 -10 -9 -10 -9 0 -16 5 -16 10 0 6 4 10 9 10 6 0 13 -4 16 -10z m-45
-4 c0 -2 -9 -6 -20 -9 -11 -3 -18 -1 -14 4 5 9 34 13 34 5z m100 -5 c0 -5 -9
-7 -20 -4 -11 3 -20 7 -20 9 0 2 9 4 20 4 11 0 20 -4 20 -9z"/>
<path d="M1570 2181 c0 -6 5 -13 10 -16 6 -3 10 -15 10 -27 0 -16 3 -18 14 -9
11 9 15 9 19 -1 3 -7 6 -3 6 9 1 12 6 25 11 28 6 3 10 10 10 16 0 5 -4 9 -10
9 -5 0 -10 -7 -10 -16 0 -8 -4 -13 -9 -10 -5 4 -12 0 -14 -6 -4 -8 -8 -4 -12
10 -7 22 -25 31 -25 13z"/>
<path d="M990 2161 c-12 -24 -13 -31 -1 -31 5 0 11 9 14 21 4 13 10 18 18 13
8 -4 10 -3 5 4 -11 17 -24 15 -36 -7z"/>
<path d="M1360 2150 c6 -11 13 -20 16 -20 2 0 0 9 -6 20 -6 11 -13 20 -16 20
-2 0 0 -9 6 -20z"/>
<path d="M1035 2151 c-3 -5 -1 -12 5 -16 5 -3 10 1 10 9 0 18 -6 21 -15 7z"/>
<path d="M1811 2144 c0 -11 3 -14 6 -6 3 7 2 16 -1 19 -3 4 -6 -2 -5 -13z"/>
<path d="M790 2139 c0 -5 5 -7 10 -4 6 3 10 8 10 11 0 2 -4 4 -10 4 -5 0 -10
-5 -10 -11z"/>
<path d="M1725 2140 c3 -5 8 -10 11 -10 2 0 4 5 4 10 0 6 -5 10 -11 10 -5 0
-7 -4 -4 -10z"/>
<path d="M261 2117 c-13 -21 -12 -21 5 -5 10 10 16 20 13 22 -3 3 -11 -5 -18
-17z"/>
<path d="M2250 2133 c0 -6 8 -17 18 -24 16 -13 16 -13 2 6 -8 11 -16 22 -17
24 -2 2 -3 0 -3 -6z"/>
<path d="M788 2115 c-4 -4 3 -16 14 -27 25 -25 32 -19 9 10 -9 13 -20 20 -23
17z"/>
<path d="M1026 2095 c-20 -30 -13 -32 14 -5 10 10 15 22 11 25 -5 2 -16 -6
-25 -20z"/>
<path d="M1478 2115 c-4 -4 3 -16 14 -27 25 -25 32 -19 9 10 -9 13 -20 20 -23
17z"/>
<path d="M1716 2095 c-20 -30 -13 -32 14 -5 10 10 15 22 11 25 -5 2 -16 -6
-25 -20z"/>
<path d="M710 2091 c0 -6 4 -13 10 -16 6 -3 7 1 4 9 -7 18 -14 21 -14 7z"/>
<path d="M1806 2083 c-6 -14 -5 -15 5 -6 7 7 10 15 7 18 -3 3 -9 -2 -12 -12z"/>
<path d="M662 2055 c0 -16 2 -22 5 -12 2 9 2 23 0 30 -3 6 -5 -1 -5 -18z"/>
<path d="M1862 2055 c0 -16 2 -22 5 -12 2 9 2 23 0 30 -3 6 -5 -1 -5 -18z"/>
<path d="M750 2045 c0 -7 30 -13 34 -7 3 4 -4 9 -15 9 -10 1 -19 0 -19 -2z"/>
<path d="M1054 2042 c4 -3 14 -7 22 -8 9 -1 13 0 10 4 -4 3 -14 7 -22 8 -9 1
-13 0 -10 -4z"/>
<path d="M1755 2040 c-3 -6 1 -7 9 -4 18 7 21 14 7 14 -6 0 -13 -4 -16 -10z"/>
<path d="M1005 2020 c3 -5 15 -10 26 -10 10 0 19 5 19 10 0 6 -12 10 -26 10
-14 0 -23 -4 -19 -10z"/>
<path d="M1480 2020 c0 -5 9 -10 19 -10 11 0 23 5 26 10 4 6 -5 10 -19 10 -14
0 -26 -4 -26 -10z"/>
<path d="M611 2004 c-1 -21 34 -62 45 -51 3 3 -3 10 -14 16 -12 6 -23 21 -25
33 -4 22 -4 22 -6 2z"/>
<path d="M1911 2004 c0 -12 -11 -29 -23 -37 -13 -9 -18 -16 -12 -16 18 -1 46
36 41 56 -4 15 -5 15 -6 -3z"/>
<path d="M759 1973 c-13 -16 -12 -17 4 -4 9 7 17 15 17 17 0 8 -8 3 -21 -13z"/>
<path d="M1488 1983 c7 -3 16 -2 19 1 4 3 -2 6 -13 5 -11 0 -14 -3 -6 -6z"/>
<path d="M1750 1986 c0 -2 8 -10 18 -17 15 -13 16 -12 3 4 -13 16 -21 21 -21
13z"/>
<path d="M820 1977 c0 -2 6 -10 14 -16 11 -9 16 -9 22 1 4 7 4 10 -1 6 -4 -4
-14 -3 -22 3 -7 6 -13 9 -13 6z"/>
<path d="M910 1971 c0 -6 5 -13 10 -16 6 -3 10 1 10 9 0 9 -4 16 -10 16 -5 0
-10 -4 -10 -9z"/>
<path d="M1075 1970 c-3 -5 -1 -10 4 -10 6 0 11 5 11 10 0 6 -2 10 -4 10 -3 0
-8 -4 -11 -10z"/>
<path d="M1440 1970 c0 -5 5 -10 11 -10 5 0 7 5 4 10 -3 6 -8 10 -11 10 -2 0
-4 -4 -4 -10z"/>
<path d="M1600 1964 c0 -8 5 -12 10 -9 6 3 10 10 10 16 0 5 -4 9 -10 9 -5 0
-10 -7 -10 -16z"/>
<path d="M1695 1970 c-4 -6 -11 -7 -17 -4 -7 4 -8 2 -4 -5 6 -9 11 -9 22 0 14
11 18 19 10 19 -3 0 -8 -5 -11 -10z"/>
<path d="M355 1950 c10 -11 20 -20 23 -20 3 0 -3 9 -13 20 -10 11 -20 20 -23
20 -3 0 3 -9 13 -20z"/>
<path d="M2164 1948 l-19 -23 23 19 c21 18 27 26 19 26 -2 0 -12 -10 -23 -22z"/>
<path d="M825 1930 c10 -11 20 -18 23 -15 7 6 -18 35 -31 35 -5 0 -2 -9 8 -20z"/>
<path d="M979 1933 c-13 -16 -12 -17 4 -4 9 7 17 15 17 17 0 8 -8 3 -21 -13z"/>
<path d="M1137 1936 c-3 -8 -20 -16 -37 -18 l-32 -3 28 -25 c25 -21 26 -22 10
-2 -19 22 -19 22 1 22 11 0 28 9 38 20 10 11 13 20 8 20 -6 0 -13 -6 -16 -14z"/>
<path d="M1375 1940 c3 -5 8 -10 11 -10 2 0 4 5 4 10 0 6 -5 10 -11 10 -5 0
-7 -4 -4 -10z"/>
<path d="M1530 1946 c0 -2 8 -10 18 -17 15 -13 16 -12 3 4 -13 16 -21 21 -21
13z"/>
<path d="M1690 1935 c-20 -24 -6 -28 15 -5 10 11 13 20 8 20 -6 0 -16 -7 -23
-15z"/>
<path d="M1028 1928 c5 -5 16 -8 23 -6 8 3 3 7 -10 11 -17 4 -21 3 -13 -5z"/>
<path d="M1485 1930 c-16 -7 -17 -9 -3 -9 9 -1 20 4 23 9 7 11 7 11 -20 0z"/>
<path d="M880 1913 c0 -6 8 -17 18 -24 16 -13 16 -13 2 6 -8 11 -16 22 -17 24
-2 2 -3 0 -3 -6z"/>
<path d="M913 1913 c9 -2 23 -2 30 0 6 3 -1 5 -18 5 -16 0 -22 -2 -12 -5z"/>
<path d="M1418 1913 c23 -5 23 -5 5 -26 -15 -18 -13 -18 10 2 15 14 27 26 27
28 0 2 -15 2 -32 2 -25 -1 -28 -3 -10 -6z"/>
<path d="M1593 1913 c9 -2 23 -2 30 0 6 3 -1 5 -18 5 -16 0 -22 -2 -12 -5z"/>
<path d="M1631 1897 c-13 -21 -12 -21 5 -5 10 10 16 20 13 22 -3 3 -11 -5 -18
-17z"/>
<path d="M1010 1906 c0 -2 7 -7 16 -10 8 -3 12 -2 9 4 -6 10 -25 14 -25 6z"/>
<path d="M1051 1894 c0 -11 3 -14 6 -6 3 7 2 16 -1 19 -3 4 -6 -2 -5 -13z"/>
<path d="M1471 1894 c0 -11 3 -14 6 -6 3 7 2 16 -1 19 -3 4 -6 -2 -5 -13z"/>
<path d="M1495 1900 c-3 -6 1 -7 9 -4 18 7 21 14 7 14 -6 0 -13 -4 -16 -10z"/>
<path d="M1175 1880 c10 -11 20 -20 23 -20 3 0 -3 9 -13 20 -10 11 -20 20 -23
20 -3 0 3 -9 13 -20z"/>
<path d="M995 1880 c3 -5 8 -10 11 -10 2 0 4 5 4 10 0 6 -5 10 -11 10 -5 0 -7
-4 -4 -10z"/>
<path d="M1339 1873 c-13 -16 -12 -17 4 -4 9 7 17 15 17 17 0 8 -8 3 -21 -13z"/>
<path d="M1520 1879 c0 -5 5 -7 10 -4 6 3 10 8 10 11 0 2 -4 4 -10 4 -5 0 -10
-5 -10 -11z"/>
<path d="M239 1863 c5 -10 29 -36 52 -58 l42 -40 -48 58 c-51 59 -63 69 -46
40z"/>
<path d="M453 1854 c18 -20 26 -37 22 -50 -6 -18 -6 -18 5 0 11 16 7 23 -21
50 l-34 31 28 -31z"/>
<path d="M2245 1823 l-48 -58 42 40 c37 35 68 75 58 75 -2 0 -25 -26 -52 -57z"/>
<path d="M350 1845 c13 -14 26 -25 28 -25 3 0 -5 11 -18 25 -13 14 -26 25 -28
25 -3 0 5 -11 18 -25z"/>
<path d="M899 1848 c23 -26 70 -41 56 -18 -4 6 -11 8 -16 4 -6 -3 -23 5 -37
17 l-27 24 24 -27z"/>
<path d="M1030 1866 c0 -2 7 -9 15 -16 13 -11 14 -10 9 4 -5 14 -24 23 -24 12z"/>
<path d="M1476 1854 c-5 -14 -4 -15 9 -4 17 14 19 20 6 20 -5 0 -12 -7 -15
-16z"/>
<path d="M1625 1850 c-10 -12 -25 -18 -32 -16 -7 3 -15 1 -18 -4 -13 -21 33
-8 55 15 13 14 21 25 18 25 -3 0 -13 -9 -23 -20z"/>
<path d="M2061 1846 c-19 -20 -21 -28 -11 -43 11 -17 11 -17 5 1 -3 12 2 28
16 43 13 12 20 23 17 23 -2 0 -15 -11 -27 -24z"/>
<path d="M2169 1843 l-24 -28 28 24 c25 23 32 31 24 31 -2 0 -14 -12 -28 -27z"/>
<path d="M818 1853 c7 -3 16 -2 19 1 4 3 -2 6 -13 5 -11 0 -14 -3 -6 -6z"/>
<path d="M1120 1851 c0 -6 4 -13 10 -16 6 -3 7 1 4 9 -7 18 -14 21 -14 7z"/>
<path d="M768 1833 c7 -3 16 -2 19 1 4 3 -2 6 -13 5 -11 0 -14 -3 -6 -6z"/>
<path d="M1203 1818 c0 -13 1 -17 4 -10 4 10 8 10 21 0 12 -9 11 -6 -2 10 -11
12 -20 22 -20 22 -1 0 -2 -10 -3 -22z"/>
<path d="M1304 1818 c-13 -16 -14 -19 -2 -10 13 10 17 10 21 0 3 -7 4 -3 4 10
-1 12 -2 22 -3 22 0 0 -9 -10 -20 -22z"/>
<path d="M1155 1820 c3 -5 8 -10 11 -10 2 0 4 5 4 10 0 6 -5 10 -11 10 -5 0
-7 -4 -4 -10z"/>
<path d="M1360 1819 c0 -5 5 -7 10 -4 6 3 10 8 10 11 0 2 -4 4 -10 4 -5 0 -10
-5 -10 -11z"/>
<path d="M1131 1801 c-1 -20 -3 -21 -16 -11 -13 10 -15 9 -14 -11 0 -13 3 -18
6 -11 2 6 9 10 14 6 11 -7 23 21 16 38 -3 7 -6 2 -6 -11z"/>
<path d="M1394 1795 c1 -11 5 -18 10 -17 5 2 13 -2 17 -10 6 -9 9 -6 9 11 0
19 -3 21 -14 12 -12 -10 -15 -8 -19 6 -3 15 -4 14 -3 -2z"/>
<path d="M400 1806 c0 -2 8 -10 18 -17 15 -13 16 -12 3 4 -13 16 -21 21 -21
13z"/>
<path d="M2109 1793 c-13 -16 -12 -17 4 -4 9 7 17 15 17 17 0 8 -8 3 -21 -13z"/>
<path d="M992 1784 c-7 -8 -8 -14 -3 -14 10 0 25 19 20 25 -2 1 -10 -3 -17
-11z"/>
<path d="M1520 1791 c0 -10 19 -25 25 -20 1 2 -3 10 -11 17 -8 7 -14 8 -14 3z"/>
<path d="M555 1770 c10 -11 20 -20 23 -20 3 0 -3 9 -13 20 -10 11 -20 20 -23
20 -3 0 3 -9 13 -20z"/>
<path d="M1964 1768 l-19 -23 23 19 c21 18 27 26 19 26 -2 0 -12 -10 -23 -22z"/>
<path d="M446 1768 c3 -4 9 -8 15 -8 5 0 9 4 9 8 0 5 -7 9 -15 9 -8 0 -12 -4
-9 -9z"/>
<path d="M2060 1768 c0 -4 4 -8 9 -8 6 0 12 4 15 8 3 5 -1 9 -9 9 -8 0 -15 -4
-15 -9z"/>
<path d="M340 1766 c0 -2 8 -10 18 -17 15 -13 16 -12 3 4 -13 16 -21 21 -21
13z"/>
<path d="M619 1743 c-12 -16 -12 -17 2 -6 9 7 20 9 24 5 5 -4 5 -1 1 6 -9 16
-11 15 -27 -5z"/>
<path d="M1890 1756 c0 -2 8 -10 18 -17 15 -13 16 -12 3 4 -13 16 -21 21 -21
13z"/>
<path d="M2159 1743 c-13 -16 -12 -17 4 -4 9 7 17 15 17 17 0 8 -8 3 -21 -13z"/>
<path d="M1071 1734 c0 -11 3 -14 6 -6 3 7 2 16 -1 19 -3 4 -6 -2 -5 -13z"/>
<path d="M1100 1740 c0 -5 5 -10 11 -10 5 0 7 5 4 10 -3 6 -8 10 -11 10 -2 0
-4 -4 -4 -10z"/>
<path d="M1240 1741 c0 -6 4 -13 10 -16 6 -3 7 1 4 9 -7 18 -14 21 -14 7z"/>
<path d="M1276 1733 c-6 -14 -5 -15 5 -6 7 7 10 15 7 18 -3 3 -9 -2 -12 -12z"/>
<path d="M1415 1740 c-3 -5 -1 -10 4 -10 6 0 11 5 11 10 0 6 -2 10 -4 10 -3 0
-8 -4 -11 -10z"/>
<path d="M2350 1718 c-15 -21 -17 -28 -6 -19 16 13 41 51 33 51 -2 0 -14 -15
-27 -32z"/>
<path d="M160 1726 c0 -2 8 -10 18 -17 15 -13 16 -12 3 4 -13 16 -21 21 -21
13z"/>
<path d="M650 1726 c0 -2 8 -10 18 -17 15 -13 16 -12 3 4 -13 16 -21 21 -21
13z"/>
<path d="M1176 1715 c-3 -8 -1 -15 4 -15 6 0 10 7 10 15 0 8 -2 15 -4 15 -2 0
-6 -7 -10 -15z"/>
<path d="M1340 1715 c0 -8 4 -15 10 -15 5 0 7 7 4 15 -4 8 -8 15 -10 15 -2 0
-4 -7 -4 -15z"/>
<path d="M1859 1713 c-13 -16 -12 -17 4 -4 9 7 17 15 17 17 0 8 -8 3 -21 -13z"/>
<path d="M2119 1713 c-13 -16 -12 -17 4 -4 9 7 17 15 17 17 0 8 -8 3 -21 -13z"/>
<path d="M280 1716 c0 -2 8 -10 18 -17 15 -13 16 -12 3 4 -13 16 -21 21 -21
13z"/>
<path d="M1036 1704 c-8 -22 -8 -64 2 -64 4 0 8 18 9 40 1 43 -1 49 -11 24z"/>
<path d="M1395 1710 c-3 -5 -1 -10 4 -10 6 0 11 5 11 10 0 6 -2 10 -4 10 -3 0
-8 -4 -11 -10z"/>
<path d="M1480 1708 c0 -9 5 -20 10 -23 13 -8 13 5 0 25 -8 13 -10 13 -10 -2z"/>
<path d="M2229 1703 c-13 -16 -12 -17 4 -4 16 13 21 21 13 21 -2 0 -10 -8 -17
-17z"/>
<path d="M1220 1685 c13 -14 26 -25 28 -25 3 0 -5 11 -18 25 -13 14 -26 25
-28 25 -3 0 5 -11 18 -25z"/>
<path d="M1262 1690 c0 -14 2 -19 5 -12 2 6 2 18 0 25 -3 6 -5 1 -5 -13z"/>
<path d="M1299 1683 l-24 -28 28 24 c25 23 32 31 24 31 -2 0 -14 -12 -28 -27z"/>
<path d="M488 1678 c11 -13 36 -31 54 -41 l33 -18 -30 23 c-16 13 -38 31 -47
41 -26 25 -35 21 -10 -5z"/>
<path d="M592 1680 c0 -14 2 -19 5 -12 2 6 2 18 0 25 -3 6 -5 1 -5 -13z"/>
<path d="M1931 1684 c0 -11 3 -14 6 -6 3 7 2 16 -1 19 -3 4 -6 -2 -5 -13z"/>
<path d="M2030 1682 c-8 -9 -29 -27 -45 -40 l-30 -23 33 18 c35 19 82 64 66
62 -5 0 -16 -8 -24 -17z"/>
<path d="M42 1665 c0 -16 2 -22 5 -12 2 9 2 23 0 30 -3 6 -5 -1 -5 -18z"/>
<path d="M1180 1680 c0 -5 5 -10 11 -10 5 0 7 5 4 10 -3 6 -8 10 -11 10 -2 0
-4 -4 -4 -10z"/>
<path d="M1335 1680 c-3 -5 -1 -10 4 -10 6 0 11 5 11 10 0 6 -2 10 -4 10 -3 0
-8 -4 -11 -10z"/>
<path d="M2482 1665 c0 -16 2 -22 5 -12 2 9 2 23 0 30 -3 6 -5 -1 -5 -18z"/>
<path d="M205 1670 c3 -5 11 -10 16 -10 6 0 7 5 4 10 -3 6 -11 10 -16 10 -6 0
-7 -4 -4 -10z"/>
<path d="M675 1660 c10 -11 20 -20 23 -20 3 0 -3 9 -13 20 -10 11 -20 20 -23
20 -3 0 3 -9 13 -20z"/>
<path d="M1070 1665 c-7 -9 -11 -17 -9 -20 3 -2 10 5 17 15 14 24 10 26 -8 5z"/>
<path d="M1366 1667 c3 -10 9 -15 12 -12 3 3 0 11 -7 18 -10 9 -11 8 -5 -6z"/>
<path d="M1844 1658 l-19 -23 23 19 c21 18 27 26 19 26 -2 0 -12 -10 -23 -22z"/>
<path d="M2296 1665 c-11 -8 -15 -15 -10 -15 6 0 19 7 30 15 10 8 15 14 9 14
-5 0 -19 -6 -29 -14z"/>
<path d="M1486 1655 c-3 -8 -1 -15 4 -15 6 0 10 7 10 15 0 8 -2 15 -4 15 -2 0
-6 -7 -10 -15z"/>
<path d="M2092 1635 c0 -16 2 -22 5 -12 2 9 2 23 0 30 -3 6 -5 -1 -5 -18z"/>
<path d="M145 1620 c10 -11 20 -20 23 -20 3 0 -3 9 -13 20 -10 11 -20 20 -23
20 -3 0 3 -9 13 -20z"/>
<path d="M1261 1631 c-1 -8 -9 -24 -18 -35 -17 -20 -17 -21 2 -4 18 17 20 17
39 0 20 -17 21 -16 5 3 -9 11 -19 27 -22 35 -4 12 -6 12 -6 1z"/>
<path d="M2019 1613 l-24 -28 28 24 c25 23 32 31 24 31 -2 0 -14 -12 -28 -27z"/>
<path d="M2374 1618 l-19 -23 23 19 c21 18 27 26 19 26 -2 0 -12 -10 -23 -22z"/>
<path d="M1050 1593 c-26 -27 -29 -33 -11 -22 21 13 60 60 50 59 -2 0 -20 -17
-39 -37z"/>
<path d="M1451 1611 c14 -22 59 -60 59 -49 0 2 -17 19 -37 38 -28 26 -34 29
-22 11z"/>
<path d="M500 1616 c0 -2 8 -10 18 -17 15 -13 16 -12 3 4 -13 16 -21 21 -21
13z"/>
<path d="M1372 1590 c7 -11 19 -22 28 -25 8 -4 4 5 -9 19 -29 31 -36 33 -19 6z"/>
<path d="M440 1596 c0 -2 8 -10 18 -17 15 -13 16 -12 3 4 -13 16 -21 21 -21
13z"/>
<path d="M1845 1579 c-18 -11 -24 -19 -14 -19 9 0 24 9 34 20 22 24 19 24 -20
-1z"/>
<path d="M2069 1583 c-13 -16 -12 -17 4 -4 9 7 17 15 17 17 0 8 -8 3 -21 -13z"/>
<path d="M672 1575 c9 -10 21 -16 28 -13 7 2 -1 10 -16 17 -27 12 -28 11 -12
-4z"/>
<path d="M1125 1570 c-3 -6 1 -7 9 -4 18 7 21 14 7 14 -6 0 -13 -4 -16 -10z"/>
<path d="M1221 1563 c-1 -12 -31 -21 -91 -27 -19 -2 -42 -7 -51 -10 -9 -4 -20
-6 -25 -5 -11 3 -66 -11 -79 -21 -5 -3 -29 -12 -52 -18 -49 -15 -50 -16 -45
-169 3 -101 4 -103 27 -103 14 0 40 -7 58 -16 31 -15 36 -15 65 0 39 20 72 20
114 0 31 -14 36 -14 76 4 39 18 42 21 28 35 -19 19 -20 24 -3 30 6 2 1 2 -13
-1 -40 -8 -61 -4 -81 14 -27 24 -23 62 12 117 24 38 33 46 43 37 11 -8 19 -3
36 25 12 19 23 35 25 35 2 0 13 -16 25 -35 17 -28 25 -33 36 -25 10 9 19 1 43
-37 35 -55 39 -93 12 -117 -20 -18 -41 -22 -81 -14 -14 3 -19 3 -12 1 16 -6
15 -11 -4 -30 -14 -14 -11 -17 28 -35 40 -18 45 -18 76 -4 42 20 73 20 115 0
31 -15 36 -15 65 0 17 9 42 16 57 16 l25 0 0 99 c0 86 2 100 18 104 16 4 16 5
0 6 -12 1 -18 9 -18 26 0 14 -2 25 -4 25 -2 0 -40 13 -84 29 -45 16 -83 26
-86 24 -3 -3 -13 -2 -23 2 -22 9 -101 18 -168 19 -35 0 -52 5 -57 16 -4 8 -7
10 -7 3z"/>
<path d="M487 1549 c7 -7 15 -10 18 -7 3 3 -2 9 -12 12 -14 6 -15 5 -6 -5z"/>
<path d="M633 1543 c0 -8 6 -9 19 -2 10 5 18 11 18 12 0 2 -8 3 -18 3 -10 0
-19 -6 -19 -13z"/>
<path d="M903 1553 c9 -2 23 -2 30 0 6 3 -1 5 -18 5 -16 0 -22 -2 -12 -5z"/>
<path d="M1603 1553 c9 -2 23 -2 30 0 6 3 -1 5 -18 5 -16 0 -22 -2 -12 -5z"/>
<path d="M1860 1553 c0 -1 8 -7 18 -12 13 -7 19 -6 19 2 0 7 -9 13 -19 13 -10
0 -18 -1 -18 -3z"/>
<path d="M2030 1550 c-9 -6 -10 -10 -3 -10 6 0 15 5 18 10 8 12 4 12 -15 0z"/>
<path d="M917 1519 c12 -12 24 -21 27 -18 2 2 -8 13 -22 23 l-27 19 22 -24z"/>
<path d="M1601 1520 c-13 -11 -19 -20 -14 -20 6 0 18 9 28 20 23 25 17 25 -14
0z"/>
<path d="M375 1510 c3 -5 8 -10 11 -10 2 0 4 5 4 10 0 6 -5 10 -11 10 -5 0 -7
-4 -4 -10z"/>
<path d="M630 1513 c0 -6 7 -16 15 -23 17 -14 21 -35 5 -25 -6 4 -9 3 -8 -2 1
-4 -3 -19 -10 -33 -12 -23 -12 -23 8 3 12 15 31 27 43 28 l22 0 -21 9 c-12 5
-29 19 -38 32 -9 12 -16 17 -16 11z"/>
<path d="M1882 1499 c-7 -11 -23 -24 -35 -29 l-22 -9 22 0 c12 -1 31 -13 43
-28 12 -16 18 -21 14 -13 -4 8 -14 23 -22 33 -14 15 -13 19 3 37 10 11 16 22
14 25 -3 2 -10 -5 -17 -16z"/>
<path d="M2140 1509 c0 -5 5 -7 10 -4 6 3 10 8 10 11 0 2 -4 4 -10 4 -5 0 -10
-5 -10 -11z"/>
<path d="M170 1490 c8 -5 24 -10 34 -10 26 0 18 6 -19 14 -22 5 -26 4 -15 -4z"/>
<path d="M2330 1490 c-21 -7 -21 -8 -5 -9 11 0 27 4 35 9 18 11 5 11 -30 0z"/>
<path d="M1948 1473 c7 -3 16 -2 19 1 4 3 -2 6 -13 5 -11 0 -14 -3 -6 -6z"/>
<path d="M1242 1436 c-20 -33 -20 -34 -1 -62 19 -30 26 -84 10 -84 -5 0 -7 8
-4 19 3 10 -3 33 -12 51 -13 25 -19 30 -26 19 -27 -42 5 -99 56 -99 51 0 83
57 56 99 -7 11 -13 6 -26 -19 -9 -18 -15 -41 -12 -51 3 -11 1 -19 -4 -19 -16
0 -9 54 10 84 19 28 19 29 -1 62 -11 19 -21 34 -23 34 -2 0 -12 -15 -23 -34z"/>
<path d="M2208 1463 c7 -3 16 -2 19 1 4 3 -2 6 -13 5 -11 0 -14 -3 -6 -6z"/>
<path d="M378 1453 c7 -3 16 -2 19 1 4 3 -2 6 -13 5 -11 0 -14 -3 -6 -6z"/>
<path d="M2138 1453 c7 -3 16 -2 19 1 4 3 -2 6 -13 5 -11 0 -14 -3 -6 -6z"/>
<path d="M832 1424 c10 -10 20 -16 22 -13 3 3 -5 11 -17 18 -21 13 -21 12 -5
-5z"/>
<path d="M468 1423 c7 -3 16 -2 19 1 4 3 -2 6 -13 5 -11 0 -14 -3 -6 -6z"/>
<path d="M1165 1377 c-25 -48 -28 -58 -17 -81 9 -20 19 -26 42 -26 30 0 31 1
16 22 -18 26 -21 79 -5 95 7 7 8 17 2 28 -8 14 -15 7 -38 -38z"/>
<path d="M1326 1414 c-4 -9 -2 -22 4 -28 15 -15 12 -69 -6 -94 -14 -21 -14
-22 10 -22 27 0 56 24 56 46 0 14 -27 71 -48 102 -7 11 -11 10 -16 -4z"/>
<path d="M2048 1423 c7 -3 16 -2 19 1 4 3 -2 6 -13 5 -11 0 -14 -3 -6 -6z"/>
<path d="M238 1403 c6 -2 18 -2 25 0 6 3 1 5 -13 5 -14 0 -19 -2 -12 -5z"/>
<path d="M429 1393 c-13 -16 -12 -17 4 -4 9 7 17 15 17 17 0 8 -8 3 -21 -13z"/>
<path d="M2080 1406 c0 -2 8 -10 18 -17 15 -13 16 -12 3 4 -13 16 -21 21 -21
13z"/>
<path d="M2268 1403 c6 -2 18 -2 25 0 6 3 1 5 -13 5 -14 0 -19 -2 -12 -5z"/>
<path d="M390 1354 c-23 -12 -23 -14 -4 -14 11 0 26 -6 34 -12 12 -11 12 -10
1 4 -7 9 -10 22 -6 28 7 12 7 12 -25 -6z"/>
<path d="M84 1346 c11 -9 24 -16 30 -16 12 0 7 5 -24 19 -24 11 -24 11 -6 -3z"/>
<path d="M2440 1350 c-9 -6 -10 -10 -3 -10 6 0 15 5 18 10 8 12 4 12 -15 0z"/>
<path d="M719 1333 c-13 -16 -12 -17 4 -4 9 7 17 15 17 17 0 8 -8 3 -21 -13z"/>
<path d="M1700 1344 c0 -6 7 -19 16 -30 14 -18 14 -18 3 6 -14 31 -19 36 -19
24z"/>
<path d="M1790 1346 c0 -2 8 -10 18 -17 15 -13 16 -12 3 4 -13 16 -21 21 -21
13z"/>
<path d="M2109 1333 c-12 -16 -12 -17 1 -7 8 7 24 14 35 17 19 4 19 5 -1 6
-12 0 -28 -7 -35 -16z"/>
<path d="M308 1333 c7 -3 16 -2 19 1 4 3 -2 6 -13 5 -11 0 -14 -3 -6 -6z"/>
<path d="M2208 1333 c7 -3 16 -2 19 1 4 3 -2 6 -13 5 -11 0 -14 -3 -6 -6z"/>
<path d="M155 1320 c3 -5 12 -7 20 -3 21 7 19 13 -6 13 -11 0 -18 -4 -14 -10z"/>
<path d="M228 1323 c6 -2 18 -2 25 0 6 3 1 5 -13 5 -14 0 -19 -2 -12 -5z"/>
<path d="M806 1313 c-6 -14 -5 -15 5 -6 7 7 10 15 7 18 -3 3 -9 -2 -12 -12z"/>
<path d="M2283 1323 c9 -2 23 -2 30 0 6 3 -1 5 -18 5 -16 0 -22 -2 -12 -5z"/>
<path d="M2340 1326 c0 -9 30 -14 35 -6 4 6 -3 10 -14 10 -12 0 -21 -2 -21 -4z"/>
<path d="M750 1305 c-7 -9 -8 -15 -2 -15 5 0 12 7 16 15 3 8 4 15 2 15 -2 0
-9 -7 -16 -15z"/>
<path d="M1766 1305 c4 -8 11 -15 16 -15 6 0 5 6 -2 15 -7 8 -14 15 -16 15 -2
0 -1 -7 2 -15z"/>
<path d="M2070 1310 c-13 -8 -12 -10 3 -10 9 0 17 5 17 10 0 12 -1 12 -20 0z"/>
<path d="M498 1303 c7 -3 16 -2 19 1 4 3 -2 6 -13 5 -11 0 -14 -3 -6 -6z"/>
<path d="M2018 1303 c7 -3 16 -2 19 1 4 3 -2 6 -13 5 -11 0 -14 -3 -6 -6z"/>
<path d="M89 1273 l-24 -28 28 24 c25 23 32 31 24 31 -2 0 -14 -12 -28 -27z"/>
<path d="M673 1285 c0 -7 6 -11 14 -8 7 3 13 6 13 8 0 2 -6 5 -13 8 -8 3 -14
-1 -14 -8z"/>
<path d="M1842 1291 c-11 -7 -11 -9 0 -14 9 -3 15 1 15 9 0 8 -1 14 -1 14 -1
0 -7 -4 -14 -9z"/>
<path d="M2430 1275 c13 -14 26 -25 28 -25 3 0 -5 11 -18 25 -13 14 -26 25
-28 25 -3 0 5 -11 18 -25z"/>
<path d="M456 1265 c-11 -8 -15 -15 -9 -15 6 0 16 7 23 15 16 19 11 19 -14 0z"/>
<path d="M709 1253 l-24 -28 28 24 c25 23 32 31 24 31 -2 0 -14 -12 -28 -27z"/>
<path d="M821 1258 c-14 -23 -14 -23 8 -4 22 20 25 26 13 26 -4 0 -13 -10 -21
-22z"/>
<path d="M1810 1255 c13 -14 26 -25 28 -25 3 0 -5 11 -18 25 -13 14 -26 25
-28 25 -3 0 5 -11 18 -25z"/>
<path d="M714 1198 c-27 -28 -43 -47 -35 -43 7 4 29 25 48 46 20 23 40 36 49
32 8 -3 14 -3 14 0 0 3 -6 7 -14 10 -8 3 -34 -16 -62 -45z"/>
<path d="M846 1241 c-3 -5 1 -11 9 -14 9 -4 12 -1 8 9 -6 16 -10 17 -17 5z"/>
<path d="M1667 1236 c-4 -10 -1 -13 8 -9 8 3 12 9 9 14 -7 12 -11 11 -17 -5z"/>
<path d="M1750 1239 c-13 -9 -12 -10 2 -5 12 3 30 -10 58 -41 22 -25 42 -44
45 -41 2 2 -17 25 -43 51 -37 36 -50 44 -62 36z"/>
<path d="M659 1213 c-13 -16 -12 -17 4 -4 9 7 17 15 17 17 0 8 -8 3 -21 -13z"/>
<path d="M1850 1226 c0 -2 8 -10 18 -17 15 -13 16 -12 3 4 -13 16 -21 21 -21
13z"/>
<path d="M75 1200 c10 -11 20 -20 23 -20 3 0 -3 9 -13 20 -10 11 -20 20 -23
20 -3 0 3 -9 13 -20z"/>
<path d="M310 1210 c-8 -5 -10 -10 -5 -10 6 0 17 5 25 10 8 5 11 10 5 10 -5 0
-17 -5 -25 -10z"/>
<path d="M1962 1207 c10 -8 15 -17 11 -21 -4 -4 1 -4 10 0 20 7 20 7 -13 23
-22 11 -23 10 -8 -2z"/>
<path d="M2444 1198 l-19 -23 23 19 c21 18 27 26 19 26 -2 0 -12 -10 -23 -22z"/>
<path d="M435 1200 c-3 -6 1 -7 9 -4 18 7 21 14 7 14 -6 0 -13 -4 -16 -10z"/>
<path d="M2070 1206 c0 -2 7 -7 16 -10 8 -3 12 -2 9 4 -6 10 -25 14 -25 6z"/>
<path d="M255 1190 c-13 -6 -15 -9 -5 -9 8 0 22 4 30 9 18 12 2 12 -25 0z"/>
<path d="M519 1183 c-13 -16 -12 -17 3 -5 9 8 23 10 29 6 8 -4 9 -3 5 4 -10
17 -21 15 -37 -5z"/>
<path d="M870 1189 c0 -5 5 -7 10 -4 6 3 10 8 10 11 0 2 -4 4 -10 4 -5 0 -10
-5 -10 -11z"/>
<path d="M2250 1190 c8 -5 22 -9 30 -9 10 0 8 3 -5 9 -27 12 -43 12 -25 0z"/>
<path d="M759 1173 c-13 -16 -12 -17 4 -4 9 7 17 15 17 17 0 8 -8 3 -21 -13z"/>
<path d="M1750 1186 c0 -2 8 -10 18 -17 15 -13 16 -12 3 4 -13 16 -21 21 -21
13z"/>
<path d="M535 1153 c-5 -10 -9 -20 -9 -23 -1 -3 -5 -11 -10 -18 -7 -11 -4 -11
13 0 12 7 16 15 11 16 -7 3 -7 9 1 18 7 8 10 17 7 20 -3 3 -9 -3 -13 -13z"/>
<path d="M1660 1166 c0 -2 8 -10 18 -17 15 -13 16 -12 3 4 -13 16 -21 21 -21
13z"/>
<path d="M194 1138 l-19 -23 23 19 c21 18 27 26 19 26 -2 0 -12 -10 -23 -22z"/>
<path d="M790 1145 c-7 -9 -11 -17 -9 -20 3 -2 10 5 17 15 14 24 10 26 -8 5z"/>
<path d="M1730 1142 c6 -13 14 -21 18 -18 3 4 -2 14 -12 24 -18 16 -18 16 -6
-6z"/>
<path d="M1988 1148 c8 -10 9 -17 2 -20 -5 -1 0 -9 12 -17 20 -13 22 -12 11 1
-7 8 -11 17 -8 20 3 3 -3 11 -12 19 -16 13 -17 12 -5 -3z"/>
<path d="M2325 1140 c10 -11 20 -20 23 -20 3 0 -3 9 -13 20 -10 11 -20 20 -23
20 -3 0 3 -9 13 -20z"/>
<path d="M624 1134 c-18 -14 -18 -15 4 -4 12 6 22 13 22 15 0 8 -5 6 -26 -11z"/>
<path d="M1880 1146 c0 -3 9 -10 20 -16 11 -6 20 -8 20 -6 0 3 -9 10 -20 16
-11 6 -20 8 -20 6z"/>
<path d="M564 1078 l-29 -33 33 29 c30 28 37 36 29 36 -2 0 -16 -15 -33 -32z"/>
<path d="M1930 1107 c0 -2 15 -16 33 -33 l32 -29 -29 33 c-28 30 -36 37 -36
29z"/>
<path d="M479 1083 c-13 -16 -12 -17 4 -4 9 7 17 15 17 17 0 8 -8 3 -21 -13z"/>
<path d="M620 1055 c-24 -25 -42 -45 -39 -45 3 0 25 20 49 45 24 25 42 45 39
45 -3 0 -25 -20 -49 -45z"/>
<path d="M756 1091 c-10 -15 18 -29 39 -20 17 7 16 8 -8 8 -16 1 -26 5 -22 11
3 6 4 10 1 10 -3 0 -7 -4 -10 -9z"/>
<path d="M1900 1058 c24 -27 45 -48 47 -48 8 0 0 9 -44 50 l-48 45 45 -47z"/>
<path d="M699 1063 c-13 -16 -12 -17 4 -4 9 7 17 15 17 17 0 8 -8 3 -21 -13z"/>
<path d="M1720 1076 c0 -2 9 -6 20 -9 11 -3 20 -1 20 4 0 5 -9 9 -20 9 -11 0
-20 -2 -20 -4z"/>
<path d="M1810 1076 c0 -2 8 -10 18 -17 15 -13 16 -12 3 4 -13 16 -21 21 -21
13z"/>
<path d="M1760 1046 c0 -2 8 -10 18 -17 15 -13 16 -12 3 4 -13 16 -21 21 -21
13z"/>
<path d="M494 1018 l-19 -23 23 19 c21 18 27 26 19 26 -2 0 -12 -10 -23 -22z"/>
<path d="M2025 1020 c10 -11 20 -20 23 -20 3 0 -3 9 -13 20 -10 11 -20 20 -23
20 -3 0 3 -9 13 -20z"/>
<path d="M615 968 l-60 -63 63 60 c58 55 67 65 59 65 -1 0 -29 -28 -62 -62z"/>
<path d="M1905 970 c33 -33 62 -60 64 -60 3 0 -21 27 -54 60 -33 33 -62 60
-64 60 -3 0 21 -27 54 -60z"/>
<path d="M695 968 l-40 -43 43 40 c23 21 42 40 42 42 0 8 -9 0 -45 -39z"/>
<path d="M1825 970 c21 -22 41 -40 44 -40 3 0 -13 18 -34 40 -21 22 -41 40
-44 40 -3 0 13 -18 34 -40z"/>
<path d="M539 983 c-13 -16 -12 -17 4 -4 9 7 17 15 17 17 0 8 -8 3 -21 -13z"/>
<path d="M1970 996 c0 -2 8 -10 18 -17 15 -13 16 -12 3 4 -13 16 -21 21 -21
13z"/>
<path d="M439 973 c-13 -16 -12 -17 4 -4 9 7 17 15 17 17 0 8 -8 3 -21 -13z"/>
<path d="M775 979 c-4 -6 -5 -12 -2 -15 2 -3 7 2 10 11 7 17 1 20 -8 4z"/>
<path d="M1746 977 c3 -10 9 -15 12 -12 3 3 0 11 -7 18 -10 9 -11 8 -5 -6z"/>
<path d="M2070 986 c0 -2 8 -10 18 -17 15 -13 16 -12 3 4 -13 16 -21 21 -21
13z"/>
<path d="M864 948 l-19 -23 23 19 c21 18 27 26 19 26 -2 0 -12 -10 -23 -22z"/>
<path d="M1026 954 c-22 -12 -34 -14 -52 -5 -29 13 -30 6 -4 -37 11 -18 18
-37 15 -42 -3 -4 11 -3 30 3 34 10 59 3 40 -11 -6 -4 -19 -18 -30 -32 l-20
-25 21 18 c20 17 64 31 64 21 0 -3 -7 -16 -16 -30 l-17 -25 27 12 c14 7 28 10
31 7 7 -7 -18 -58 -29 -58 -4 0 34 -43 85 -95 62 -62 96 -90 101 -82 5 8 11 6
22 -8 9 -11 16 -15 16 -9 0 5 -4 14 -9 20 -6 5 20 40 70 92 43 45 76 82 71 82
-9 0 -33 52 -27 58 3 3 17 0 31 -7 l27 -12 -17 25 c-9 14 -16 27 -16 30 0 10
44 -4 64 -21 l21 -18 -20 25 c-11 14 -24 28 -30 32 -19 14 6 21 40 11 19 -6
33 -7 30 -3 -3 5 4 24 15 42 26 43 25 50 -4 37 -18 -8 -30 -7 -54 5 -39 20
-75 20 -114 0 -29 -15 -34 -15 -65 0 -18 9 -36 16 -38 16 -3 0 -5 -18 -5 -40
0 -33 3 -40 20 -40 11 0 20 5 20 10 0 6 7 10 15 10 10 0 15 -10 15 -28 0 -23
-5 -28 -27 -30 -14 -1 -28 -4 -31 -6 -10 -10 11 -26 34 -26 19 0 24 -5 24 -25
0 -16 -6 -25 -15 -25 -8 0 -15 5 -15 10 0 6 -10 10 -21 10 -16 0 -20 -5 -16
-19 2 -10 1 -25 -3 -32 -12 -19 -39 7 -33 31 4 15 0 20 -16 20 -12 0 -21 -6
-21 -15 0 -9 -6 -12 -15 -9 -8 4 -15 17 -15 30 0 19 5 24 24 24 23 0 44 16 34
26 -3 2 -17 5 -31 6 -22 2 -27 7 -27 30 0 18 5 28 15 28 8 0 15 -4 15 -10 0
-5 9 -10 20 -10 17 0 20 7 20 40 0 46 0 46 -42 24 -29 -15 -34 -15 -65 0 -42
20 -79 20 -117 0z"/>
<path d="M1655 950 c10 -11 20 -20 23 -20 3 0 -3 9 -13 20 -10 11 -20 20 -23
20 -3 0 3 -9 13 -20z"/>
<path d="M489 943 c-13 -16 -12 -17 4 -4 9 7 17 15 17 17 0 8 -8 3 -21 -13z"/>
<path d="M2020 956 c0 -2 8 -10 18 -17 15 -13 16 -12 3 4 -13 16 -21 21 -21
13z"/>
<path d="M913 911 c-20 -17 -21 -20 -6 -26 10 -3 14 -3 10 1 -4 4 0 16 10 26
21 23 14 23 -14 -1z"/>
<path d="M1603 914 c9 -11 14 -24 10 -28 -4 -4 1 -4 10 0 10 3 17 7 15 8 -2 1
-14 10 -28 21 l-25 20 18 -21z"/>
<path d="M699 903 c-13 -16 -12 -17 4 -4 9 7 17 15 17 17 0 8 -8 3 -21 -13z"/>
<path d="M1810 916 c0 -2 8 -10 18 -17 15 -13 16 -12 3 4 -13 16 -21 21 -21
13z"/>
<path d="M970 825 c-7 -9 -10 -18 -6 -22 3 -3 6 -1 6 5 0 6 8 12 18 14 11 2
13 6 6 11 -7 4 -17 0 -24 -8z"/>
<path d="M1535 830 c-3 -5 1 -10 9 -10 8 0 17 -8 19 -17 4 -15 5 -15 6 -2 1
21 -25 44 -34 29z"/>
<path d="M996 788 c3 -4 9 -8 15 -8 5 0 9 4 9 8 0 5 -7 9 -15 9 -8 0 -12 -4
-9 -9z"/>
<path d="M1510 788 c0 -4 4 -8 9 -8 6 0 12 4 15 8 3 5 -1 9 -9 9 -8 0 -15 -4
-15 -9z"/>
<path d="M1051 764 c0 -11 3 -14 6 -6 3 7 2 16 -1 19 -3 4 -6 -2 -5 -13z"/>
<path d="M1465 760 c-3 -5 -1 -10 4 -10 6 0 11 5 11 10 0 6 -2 10 -4 10 -3 0
-8 -4 -11 -10z"/>
<path d="M1041 704 c0 -11 3 -14 6 -6 3 7 2 16 -1 19 -3 4 -6 -2 -5 -13z"/>
<path d="M1481 704 c0 -11 3 -14 6 -6 3 7 2 16 -1 19 -3 4 -6 -2 -5 -13z"/>
<path d="M1011 694 c0 -11 3 -14 6 -6 3 7 2 16 -1 19 -3 4 -6 -2 -5 -13z"/>
<path d="M1511 694 c0 -11 3 -14 6 -6 3 7 2 16 -1 19 -3 4 -6 -2 -5 -13z"/>
<path d="M1487 639 c7 -7 15 -10 18 -7 3 3 -2 9 -12 12 -14 6 -15 5 -6 -5z"/>
<path d="M1220 565 c-8 -9 -8 -15 -2 -15 12 0 26 19 19 26 -2 2 -10 -2 -17
-11z"/>
<path d="M1077 489 c7 -7 15 -10 18 -7 3 3 -2 9 -12 12 -14 6 -15 5 -6 -5z"/>
<path d="M1141 478 c-13 -22 -13 -22 5 -7 10 9 26 19 34 22 11 4 9 6 -5 6 -11
1 -26 -9 -34 -21z"/>
<path d="M1350 493 c8 -3 24 -13 34 -22 18 -15 18 -15 5 7 -8 12 -23 22 -34
21 -14 0 -16 -2 -5 -6z"/>
<path d="M1440 490 c-9 -6 -10 -10 -3 -10 6 0 15 5 18 10 8 12 4 12 -15 0z"/>
<path d="M909 473 c-13 -16 -12 -17 4 -4 16 13 21 21 13 21 -2 0 -10 -8 -17
-17z"/>
<path d="M1600 486 c0 -2 8 -10 18 -17 15 -13 16 -12 3 4 -13 16 -21 21 -21
13z"/>
<path d="M1169 453 c-13 -16 -12 -17 4 -4 16 13 21 21 13 21 -2 0 -10 -8 -17
-17z"/>
<path d="M1340 466 c0 -2 8 -10 18 -17 15 -13 16 -12 3 4 -13 16 -21 21 -21
13z"/>
<path d="M1210 430 c6 -11 13 -20 16 -20 2 0 0 9 -6 20 -6 11 -13 20 -16 20
-2 0 0 -9 6 -20z"/>
<path d="M1310 430 c-6 -11 -8 -20 -6 -20 3 0 10 9 16 20 6 11 8 20 6 20 -3 0
-10 -9 -16 -20z"/>
<path d="M909 413 c-13 -16 -12 -17 4 -4 16 13 21 21 13 21 -2 0 -10 -8 -17
-17z"/>
<path d="M1169 413 c-13 -16 -12 -17 4 -4 16 13 21 21 13 21 -2 0 -10 -8 -17
-17z"/>
<path d="M1510 426 c0 -2 7 -7 16 -10 8 -3 12 -2 9 4 -6 10 -25 14 -25 6z"/>
<path d="M1600 426 c0 -2 8 -10 18 -17 15 -13 16 -12 3 4 -13 16 -21 21 -21
13z"/>
<path d="M1068 413 c7 -3 16 -2 19 1 4 3 -2 6 -13 5 -11 0 -14 -3 -6 -6z"/>
<path d="M1448 413 c7 -3 16 -2 19 1 4 3 -2 6 -13 5 -11 0 -14 -3 -6 -6z"/>
<path d="M959 393 c-13 -16 -12 -17 4 -4 16 13 21 21 13 21 -2 0 -10 -8 -17
-17z"/>
<path d="M1550 406 c0 -2 8 -10 18 -17 15 -13 16 -12 3 4 -13 16 -21 21 -21
13z"/>
<path d="M1236 387 c3 -10 9 -15 12 -12 3 3 0 11 -7 18 -10 9 -11 8 -5 -6z"/>
<path d="M1285 389 c-4 -6 -5 -12 -2 -15 2 -3 7 2 10 11 7 17 1 20 -8 4z"/>
<path d="M994 368 l-19 -23 23 19 c21 18 27 26 19 26 -2 0 -12 -10 -23 -22z"/>
<path d="M1531 364 c13 -17 26 -30 28 -27 3 2 -8 16 -24 31 l-28 27 24 -31z"/>
<path d="M1164 358 l-19 -23 23 19 c12 11 22 21 22 23 0 8 -8 2 -26 -19z"/>
<path d="M1355 360 c10 -11 20 -20 23 -20 3 0 -3 9 -13 20 -10 11 -20 20 -23
20 -3 0 3 -9 13 -20z"/>
<path d="M1019 353 c-13 -16 -12 -17 4 -4 16 13 21 21 13 21 -2 0 -10 -8 -17
-17z"/>
<path d="M1264 285 c0 -50 1 -71 3 -48 2 23 2 64 0 90 -2 26 -3 8 -3 -42z"/>
<path d="M1490 366 c0 -2 8 -10 18 -17 15 -13 16 -12 3 4 -13 16 -21 21 -21
13z"/>
<path d="M1231 334 c0 -11 3 -14 6 -6 3 7 2 16 -1 19 -3 4 -6 -2 -5 -13z"/>
<path d="M1291 334 c0 -11 3 -14 6 -6 3 7 2 16 -1 19 -3 4 -6 -2 -5 -13z"/>
<path d="M1090 320 c-8 -5 -12 -11 -9 -14 2 -3 11 -1 19 4 8 5 12 11 9 14 -2
3 -11 1 -19 -4z"/>
<path d="M1190 310 c-6 -11 -8 -20 -6 -20 3 0 10 9 16 20 6 11 8 20 6 20 -3 0
-10 -9 -16 -20z"/>
<path d="M1330 310 c6 -11 13 -20 16 -20 2 0 0 9 -6 20 -6 11 -13 20 -16 20
-2 0 0 -9 6 -20z"/>
<path d="M1420 321 c0 -5 7 -11 15 -15 8 -3 15 -1 15 3 0 5 -7 11 -15 15 -8 3
-15 1 -15 -3z"/>
<path d="M961 304 c0 -11 3 -14 6 -6 3 7 2 16 -1 19 -3 4 -6 -2 -5 -13z"/>
<path d="M1036 305 c4 -8 8 -15 10 -15 2 0 4 7 4 15 0 8 -4 15 -10 15 -5 0 -7
-7 -4 -15z"/>
<path d="M1480 305 c0 -8 2 -15 4 -15 2 0 6 7 10 15 3 8 1 15 -4 15 -6 0 -10
-7 -10 -15z"/>
<path d="M1561 304 c0 -11 3 -14 6 -6 3 7 2 16 -1 19 -3 4 -6 -2 -5 -13z"/>
<path d="M1139 283 l-24 -28 28 24 c15 14 27 26 27 28 0 8 -8 1 -31 -24z"/>
<path d="M1380 285 c13 -14 26 -25 28 -25 3 0 -5 11 -18 25 -13 14 -26 25 -28
25 -3 0 5 -11 18 -25z"/>
<path d="M1036 265 c-3 -8 -1 -15 3 -15 5 0 11 7 15 15 3 8 1 15 -3 15 -5 0
-11 -7 -15 -15z"/>
<path d="M1476 266 c3 -8 12 -17 20 -20 11 -4 12 -2 1 14 -14 23 -29 27 -21 6z"/>
<path d="M978 233 c6 -2 18 -2 25 0 6 3 1 5 -13 5 -14 0 -19 -2 -12 -5z"/>
<path d="M1201 233 c-1 -6 -4 -20 -7 -30 -5 -17 -5 -17 6 0 6 10 9 23 6 30 -3
9 -5 9 -5 0z"/>
<path d="M1321 230 c0 -8 4 -22 9 -30 12 -18 12 -2 0 25 -6 13 -9 15 -9 5z"/>
<path d="M1528 233 c7 -3 16 -2 19 1 4 3 -2 6 -13 5 -11 0 -14 -3 -6 -6z"/>
<path d="M935 220 c-3 -6 1 -7 9 -4 18 7 21 14 7 14 -6 0 -13 -4 -16 -10z"/>
<path d="M945 120 c10 -11 20 -20 23 -20 3 0 -3 9 -13 20 -10 11 -20 20 -23
20 -3 0 3 -9 13 -20z"/>
<path d="M1574 118 l-19 -23 23 19 c12 11 22 21 22 23 0 8 -8 2 -26 -19z"/>
<path d="M1330 119 c0 -5 5 -7 10 -4 6 3 10 8 10 11 0 2 -4 4 -10 4 -5 0 -10
-5 -10 -11z"/>
<path d="M1003 93 c9 -2 23 -2 30 0 6 3 -1 5 -18 5 -16 0 -22 -2 -12 -5z"/>
<path d="M1503 93 c9 -2 23 -2 30 0 6 3 -1 5 -18 5 -16 0 -22 -2 -12 -5z"/>
<path d="M1280 65 c-10 -12 -16 -13 -26 -4 -8 6 -14 9 -14 6 0 -2 6 -10 13
-16 11 -8 18 -6 32 9 10 11 16 20 13 20 -3 0 -11 -7 -18 -15z"/>
<path d="M1200 66 c0 -2 8 -10 18 -17 15 -13 16 -12 3 4 -13 16 -21 21 -21 13z"/>
<path d="M1309 53 c-13 -16 -12 -17 4 -4 16 13 21 21 13 21 -2 0 -10 -8 -17
-17z"/>
</g>
</svg>
